<svg xmlns="http://www.w3.org/2000/svg" viewBox="0 0 74.02 74.75"><defs><style>.cls-1{fill:#ffffff;stroke:#231f20;stroke-miterlimit:10;stroke-width:0.25px;}</style></defs><g id="Layer_2" data-name="Layer 2"><g id="Layer_2-2" data-name="Layer 2"><path class="cls-1" d="M71.21,39.34a7.85,7.85,0,0,0-5.44-1.24c-2,.3-2.62,1.27-6.81,3.58-3.54,1.94-4.4,2.13-4.77,1.78s0-.93.29-2.53a16.68,16.68,0,0,0-.12-7.13c-.43-1.57-1-2.15-.64-2.51.64-.7,3.46.84,5.28,1.83,3.51,1.93,4.5,3.25,7.23,3.71a5.79,5.79,0,0,0,2.77,0c3.54-1,5.23-7,4.77-11.58a15.17,15.17,0,0,0-5.92-10C66.54,14.32,63.23,12,59.72,13a7.11,7.11,0,0,0-3.36,2.3c-1.33,1.7-1,3-1.88,7.93C54,26.05,53.45,29,52.66,29c-.43,0-.3-.79-1.8-2.83a11.68,11.68,0,0,0-5.51-3.9c-1.26-.49-1.93-.51-2-.93-.15-.86,2.35-2,4.26-2.85,2.85-1.29,3.85-1.29,6.15-2.63,1.52-.88,2.29-1.33,2.83-2.27,1.14-2,.26-4.45,0-5.31-1.44-4-5.62-6.9-9.74-7.83C41-.84,35,1.67,32.91,4.84a5.39,5.39,0,0,0-1,3.05,6.1,6.1,0,0,0,1.83,3.82c6.72,7.75,6.83,8.63,6.63,9-.29.54-1.38-.25-4.07.13a17.79,17.79,0,0,0-5.15,1.58c-1.2.63-1.76,1.14-2.18.88s-.33-1.62-.08-3.14A29.29,29.29,0,0,1,30,15.9c.61-2,.57-1.77.66-2.14.26-1,1.13-4.52-.49-6.8A6.45,6.45,0,0,0,26,4.74,14.38,14.38,0,0,0,13.82,8.31c-4.26,3.85-5.34,9.4-4.69,12.26a5.31,5.31,0,0,0,1.32,2.64,5.94,5.94,0,0,0,3.32,1.57,16.83,16.83,0,0,0,3.76,0c2.2-.08,4-.32,6.64-.3,1.51,0,2.25.08,2.38.47s-.58.92-1.42,1.83A14.16,14.16,0,0,0,22,32.66c-.5,2.09-.11,3-.64,3.23-1.27.52-4.57-4.47-4.87-4.91-1.27-1.92-1.48-2.76-2.83-4a7.29,7.29,0,0,0-3.31-2.06c-3-.67-5.85,2-6.48,2.62C.17,31-.73,37.16.92,42c.14.43,2.71,7.69,7.73,8.06a7.24,7.24,0,0,0,4.22-1.18c1.77-1.15,1.83-2.31,4.22-5.65,1.06-1.49,3.37-4.71,4.31-4.3.51.22.05,1.25.54,3.24a13,13,0,0,0,2.65,4.93c1.37,1.74,2.19,2.07,2,2.56-.23.68-2,.66-7.28.47-5.7-.21-7.12-.32-8.38.72A6.13,6.13,0,0,0,9.13,55c-.62,4.18,1.44,8.68,4.64,11.49,4.75,4.18,12.84,5.33,16.12,1.88A6.51,6.51,0,0,0,31.47,65c.5-2.89-1.3-4.5-2.55-10-.7-3.09-.37-3.58-.13-3.71.47-.24,1.05.77,2.71,1.64a16,16,0,0,0,5.67,1.3c2.08,0,2.84-.59,3.15-.17.73,1-2.89,5-4.34,6.68-2.4,2.69-3.5,3.36-3.83,5.15A6.61,6.61,0,0,0,33,70.23C35.67,74.8,44.33,75.94,50.36,73c1.36-.65,4.77-2.29,6-6,.16-.47,1.35-4.05-.47-6.58-1.27-1.75-2.85-1.41-8-3.8-2.19-1-4.81-2.26-4.64-3.15.11-.53,1.1-.39,2.85-1.18a13,13,0,0,0,4.86-4c1.17-1.59,1.29-2.59,1.83-2.56,1,.06,1.49,3.37,1.83,5,.54,2.7.84,5,1,6.63a5.31,5.31,0,0,0,1.74,3.2,5.86,5.86,0,0,0,4.13,1.12,10.12,10.12,0,0,0,4.93-1.51,15,15,0,0,0,6.09-7.1C74.11,49.23,75,42.21,71.21,39.34ZM63,21.15c1.54-.52,3.55,1.26,4.06,3.17.41,1.54,0,3.64-1.26,4.13-1.53.62-4.09-1.31-4.43-3.6C61.2,23.45,61.77,21.57,63,21.15ZM22.17,16.44c-1.36,1.4-4,2-5,.89s-.38-3.48,1-4.71,4-1.54,5-.32S23.21,15.38,22.17,16.44Zm-13,24.81c-1.6,0-3-2.3-2.85-4.3.15-1.55,1.32-3.41,2.82-3.41s2.76,2.06,2.8,3.75C12,39.14,10.72,41.23,9.21,41.25ZM22.9,62.68c-1,1.14-3.52.58-4.84-.72s-1.83-3.4-.91-4.45,3.85-.65,5.21,1C23.33,59.62,23.84,61.66,22.9,62.68ZM40.68,8.06c.36-1.38,2.91-2,4.77-1.46,1.67.47,3.44,2,3.17,3.33s-2.9,2.22-4.87,1.64C42,11.07,40.34,9.37,40.68,8.06Zm3.17,55.09c1.8-.53,4.25.15,4.63,1.62s-1.09,2.8-2.38,3.4c-1.94.91-4.79.36-5.28-1.12S42,63.69,43.85,63.15ZM38.62,42.66a5.39,5.39,0,0,1-5.7-4.09A5.53,5.53,0,0,1,38.11,32a5.44,5.44,0,0,1,5.36,5.53A5.38,5.38,0,0,1,38.62,42.66ZM67,51.08c-.8,1.79-3.08,3.17-4.52,2.41s-1.54-3.15-.73-4.75,3-3,4.39-2.24S67.65,49.54,67,51.08Z"/></g></g></svg>